<?xml version="1.0" standalone="no"?>
<!DOCTYPE svg PUBLIC "-//W3C//DTD SVG 20010904//EN"
 "http://www.w3.org/TR/2001/REC-SVG-20010904/DTD/svg10.dtd">
<svg version="1.0" xmlns="http://www.w3.org/2000/svg"
 width="128.000000pt" height="128.000000pt" viewBox="0 0 128.000000 128.000000"
 preserveAspectRatio="xMidYMid meet">

<g transform="translate(0.000000,128.000000) scale(0.100000,-0.100000)"
fill="#000000" stroke="none">
<path d="M473 1103 c-7 -2 -26 -29 -43 -59 l-31 -54 -150 0 c-169 0 -208 -10
-233 -59 -23 -43 -24 -657 -1 -700 28 -56 31 -56 625 -56 594 0 597 0 625 56
23 43 22 657 -1 700 -24 47 -66 59 -203 59 l-119 0 -32 53 c-18 28 -38 55 -44
59 -12 8 -374 9 -393 1z m395 -113 l37 -59 139 -1 c115 0 143 -3 158 -17 17
-15 18 -39 18 -334 0 -317 0 -318 -22 -333 -20 -14 -89 -16 -558 -16 -469 0
-538 2 -558 16 -22 15 -22 16 -22 331 0 280 2 319 17 335 14 16 34 18 187 18
l171 0 33 60 33 60 165 0 165 0 37 -60z"/>
<path d="M586 860 c-81 -25 -160 -116 -172 -197 -19 -131 36 -236 155 -291 44
-20 64 -24 115 -20 137 11 233 107 244 244 4 51 0 71 -20 115 -28 61 -74 110
-127 136 -41 19 -151 27 -195 13z m201 -86 c54 -44 83 -98 83 -159 -1 -199
-237 -279 -363 -123 -55 69 -50 182 11 250 50 56 83 69 164 65 57 -2 72 -7
105 -33z"/>
<path d="M947 852 c-22 -25 -21 -55 2 -76 27 -25 72 -17 90 15 13 24 13 29 -2
53 -21 31 -66 35 -90 8z"/>
<path d="M237 1074 c-4 -4 -7 -18 -7 -31 0 -22 4 -23 61 -23 60 0 60 0 57 28
-3 25 -7 27 -53 30 -28 2 -54 0 -58 -4z"/>
</g>
</svg>
